<svg width="1310" height="1310" viewBox="0 0 1310 1310" fill="none" xmlns="http://www.w3.org/2000/svg">
<path d="M1306.5 655C1306.5 1014.81 1014.81 1306.5 655 1306.5C295.186 1306.5 3.5 1014.81 3.5 655C3.5 295.186 295.186 3.5 655 3.5C1014.81 3.5 1306.5 295.186 1306.5 655Z" fill="url(#paint0_linear_0_3)" stroke="white" stroke-width="7"/>
<path d="M528.988 186.23C520.512 186.23 512.673 185.684 505.473 184.59C498.318 183.451 491.755 181.331 485.785 178.232V151.23H506.361C508.275 153.874 510.622 156.13 513.402 157.998C516.228 159.867 519.623 160.801 523.588 160.801C526.778 160.801 529.034 159.958 530.355 158.271C531.677 156.54 532.338 154.01 532.338 150.684C526.186 150.137 520.261 149.18 514.564 147.812C508.913 146.445 503.855 144.44 499.389 141.797C494.923 139.108 491.391 135.553 488.793 131.133C486.195 126.667 484.896 121.084 484.896 114.385C484.896 105.407 486.879 98.3431 490.844 93.1934C494.854 88.0436 500.346 84.375 507.318 82.1875C514.337 80 522.335 78.9062 531.312 78.9062C540.199 78.9062 548.061 79.5898 554.896 80.957C561.732 82.3242 568.044 84.3522 573.832 87.041V113.701H553.256C551.433 111.104 549.177 108.87 546.488 107.002C543.799 105.088 540.541 104.131 536.713 104.131C533.523 104.131 531.221 105.111 529.809 107.07C528.396 108.984 527.689 111.628 527.689 115C534.662 115.228 541.088 115.957 546.967 117.188C552.891 118.418 558.018 120.423 562.348 123.203C566.723 125.938 570.095 129.652 572.465 134.346C574.88 138.994 576.088 144.896 576.088 152.051C576.088 158.568 574.88 164.036 572.465 168.457C570.049 172.832 566.7 176.318 562.416 178.916C558.132 181.514 553.142 183.382 547.445 184.521C541.749 185.661 535.596 186.23 528.988 186.23ZM584.975 185V150.547L593.383 148.838L613.549 80H670.014L690.248 148.838L698.656 150.547V185H659.76L656.068 167.363H627.494L623.871 185H584.975ZM633.373 143.916H650.189L641.781 104.336L633.373 143.916ZM704.877 185V155.332L715.814 153.623V108.848L704.877 107.139V80H786.703C795.316 81.8229 802.836 84.7852 809.262 88.8867C815.688 92.9427 820.678 98.4342 824.232 105.361C827.787 112.243 829.564 120.879 829.564 131.27C829.564 141.523 827.855 150.114 824.438 157.041C821.02 163.923 816.189 169.414 809.945 173.516C803.702 177.617 796.296 180.557 787.729 182.334C779.206 184.111 769.818 185 759.564 185H704.877ZM759.564 153.623H766.264C772.097 153.623 776.654 152.712 779.936 150.889C783.217 149.02 785.062 145.534 785.473 140.43C785.564 139.062 785.632 137.627 785.678 136.123C785.723 134.574 785.746 132.956 785.746 131.27C785.746 125.892 785.268 121.562 784.311 118.281C783.354 115 781.485 112.607 778.705 111.104C775.925 109.6 771.778 108.848 766.264 108.848H759.564V153.623Z" fill="black"/>
<path d="M825.5 655C825.5 752.02 749.072 830.5 655 830.5C560.928 830.5 484.5 752.02 484.5 655C484.5 557.98 560.928 479.5 655 479.5C749.072 479.5 825.5 557.98 825.5 655Z" fill="#212121" stroke="white" stroke-width="7"/>
<defs>
<linearGradient id="paint0_linear_0_3" x1="204.556" y1="-1.99211e-05" x2="1105.44" y2="1310" gradientUnits="userSpaceOnUse">
<stop stop-color="#403C3A"/>
<stop offset="1" stop-color="#A69C96"/>
</linearGradient>
</defs>
</svg>
